<mxfile host="app.diagrams.net" modified="2023-10-30T15:28:22.569Z" agent="Mozilla/5.0 (Windows NT 10.0; Win64; x64) AppleWebKit/537.36 (KHTML, like Gecko) Chrome/118.0.0.0 Safari/537.36" etag="rwhNi2T0pyNrQbFWwP5k" version="22.0.8" type="github">
  <diagram name="Страница — 1" id="iXpD3V6JB6Ld70vyuxYm">
    <mxGraphModel dx="1820" dy="1218" grid="1" gridSize="10" guides="1" tooltips="1" connect="1" arrows="1" fold="1" page="0" pageScale="1" pageWidth="827" pageHeight="1169" math="0" shadow="0">
      <root>
        <mxCell id="0" />
        <mxCell id="1" parent="0" />
        <mxCell id="WzQApt9gsSdg_tN_DDiw-2" value="WbAPI" style="rounded=1;whiteSpace=wrap;html=1;fontSize=16;" vertex="1" parent="1">
          <mxGeometry x="240" y="-280" width="120" height="60" as="geometry" />
        </mxCell>
        <mxCell id="WzQApt9gsSdg_tN_DDiw-5" style="edgeStyle=none;curved=1;rounded=0;orthogonalLoop=1;jettySize=auto;html=1;entryX=0.5;entryY=1;entryDx=0;entryDy=0;fontSize=12;startSize=8;endSize=8;" edge="1" parent="1" source="WzQApt9gsSdg_tN_DDiw-3" target="WzQApt9gsSdg_tN_DDiw-4">
          <mxGeometry relative="1" as="geometry" />
        </mxCell>
        <mxCell id="WzQApt9gsSdg_tN_DDiw-3" value="Advertising Companies" style="rounded=1;whiteSpace=wrap;html=1;fontSize=16;" vertex="1" parent="1">
          <mxGeometry x="-160" y="-80" width="120" height="60" as="geometry" />
        </mxCell>
        <mxCell id="WzQApt9gsSdg_tN_DDiw-7" style="edgeStyle=none;curved=1;rounded=0;orthogonalLoop=1;jettySize=auto;html=1;entryX=1;entryY=1;entryDx=0;entryDy=0;fontSize=12;startSize=8;endSize=8;" edge="1" parent="1" source="WzQApt9gsSdg_tN_DDiw-4" target="WzQApt9gsSdg_tN_DDiw-6">
          <mxGeometry relative="1" as="geometry" />
        </mxCell>
        <mxCell id="WzQApt9gsSdg_tN_DDiw-9" style="edgeStyle=none;curved=1;rounded=0;orthogonalLoop=1;jettySize=auto;html=1;entryX=0.5;entryY=1;entryDx=0;entryDy=0;fontSize=12;startSize=8;endSize=8;" edge="1" parent="1" source="WzQApt9gsSdg_tN_DDiw-4" target="WzQApt9gsSdg_tN_DDiw-8">
          <mxGeometry relative="1" as="geometry" />
        </mxCell>
        <mxCell id="WzQApt9gsSdg_tN_DDiw-4" value="remote" style="rounded=1;whiteSpace=wrap;html=1;fontSize=16;" vertex="1" parent="1">
          <mxGeometry x="-160" y="-220" width="120" height="60" as="geometry" />
        </mxCell>
        <mxCell id="WzQApt9gsSdg_tN_DDiw-6" value="place" style="rounded=1;whiteSpace=wrap;html=1;fontSize=16;" vertex="1" parent="1">
          <mxGeometry x="-360" y="-320" width="120" height="60" as="geometry" />
        </mxCell>
        <mxCell id="WzQApt9gsSdg_tN_DDiw-8" value="time" style="rounded=1;whiteSpace=wrap;html=1;fontSize=16;" vertex="1" parent="1">
          <mxGeometry x="-160" y="-320" width="120" height="60" as="geometry" />
        </mxCell>
      </root>
    </mxGraphModel>
  </diagram>
</mxfile>
